<?xml version="1.0" encoding="UTF-8" standalone="no"?>
<!DOCTYPE svg PUBLIC "-//W3C//DTD SVG 1.1//EN" "http://www.w3.org/Graphics/SVG/1.1/DTD/svg11.dtd">
<svg width="100%" height="100%" viewBox="0 0 460 460" version="1.1" xmlns="http://www.w3.org/2000/svg" xmlns:xlink="http://www.w3.org/1999/xlink" xml:space="preserve" xmlns:serif="http://www.serif.com/" style="fill-rule:evenodd;clip-rule:evenodd;stroke-linejoin:round;stroke-miterlimit:2;">
    <g transform="matrix(0.863374,0,0,0.944811,-3.08074,-2.27128)">
        <path d="M540.222,63.001L540.222,426.461C540.222,461.723 508.894,490.351 470.306,490.351L70.138,490.351C31.55,490.351 0.222,461.723 0.222,426.461L0.222,63.001C0.222,27.739 31.55,-0.889 70.138,-0.889L470.306,-0.889C508.894,-0.889 540.222,27.739 540.222,63.001Z" style="fill:rgb(0,61,82);"/>
    </g>
    <g transform="matrix(4.16667,0,0,4.16667,46.225,50.0121)">
        <path d="M0,86.308C6.274,91.683 15.42,94.526 26.442,94.526C48.413,94.526 61.529,83.29 61.529,64.47C61.529,57.479 59.888,52.632 56.04,48.258C51.879,43.529 44.764,39.155 33.651,34.491C22.294,29.695 16.368,26.89 16.368,20.345C16.368,15.58 20.763,11.704 26.165,11.704C31.835,11.704 34.926,14.725 36.123,21.481L60.682,21.481C60.367,9.082 55.561,1.407 44.717,-4.091C39.177,-6.867 33.335,-8.218 26.859,-8.218C17.818,-8.218 8.876,-5.223 2.324,-0.001C-4.479,5.423 -8.227,12.744 -8.227,20.616C-8.227,33.188 -0.833,41.72 15.747,48.282C16.634,48.63 17.542,48.979 18.455,49.33C27.118,52.657 36.936,56.429 36.936,64.198C36.936,69.935 32.166,74.604 26.304,74.604C19.602,74.604 15.111,69.247 14.725,60.89L-9.894,60.89L-9.894,62.297C-9.894,72.607 -6.565,80.684 0,86.308" style="fill:rgb(0,173,188);fill-rule:nonzero;"/>
    </g>
    <g transform="matrix(4.16667,0,0,4.16667,384.437,302.855)">
        <path d="M0,33.93C-9.369,33.93 -16.964,26.335 -16.964,16.964C-16.964,7.595 -9.369,0 0,0C9.369,0 16.966,7.595 16.966,16.964C16.966,26.335 9.369,33.93 0,33.93" style="fill:rgb(0,173,188);fill-rule:nonzero;"/>
    </g>
</svg>
