<?xml version="1.0" encoding="UTF-8" standalone="no"?><!DOCTYPE svg PUBLIC "-//W3C//DTD SVG 1.1//EN" "http://www.w3.org/Graphics/SVG/1.1/DTD/svg11.dtd"><svg width="100%" height="100%" viewBox="0 0 6250 2542" version="1.1" xmlns="http://www.w3.org/2000/svg" xmlns:xlink="http://www.w3.org/1999/xlink" xml:space="preserve" xmlns:serif="http://www.serif.com/" style="fill-rule:evenodd;clip-rule:evenodd;stroke-linejoin:round;stroke-miterlimit:2;"><g><path d="M3610.07,1663.97c108.924,93.316 267.708,142.674 459.063,142.674c381.441,-0 609.149,-195.07 609.149,-521.806c0,-121.372 -28.489,-205.521 -95.295,-281.459c-72.239,-82.101 -195.764,-158.038 -388.698,-239.011c-197.17,-83.264 -300.052,-131.962 -300.052,-245.59c-0,-82.726 76.302,-150.018 170.087,-150.018c98.437,0 152.1,52.448 172.882,169.74l426.372,0c-5.469,-215.26 -88.907,-348.507 -277.171,-443.959c-96.18,-48.194 -197.604,-71.649 -310.035,-71.649c-156.962,0 -312.205,51.997 -425.955,142.656c-118.108,94.167 -183.177,221.268 -183.177,357.935c-0,218.264 128.368,366.389 416.215,480.313c15.4,6.041 31.164,12.1 47.014,18.194c150.4,57.761 320.851,123.247 320.851,258.125c0,99.601 -82.812,180.66 -184.583,180.66c-116.354,0 -194.323,-93.003 -201.025,-238.09l-427.413,-0l-0,24.427c-0,178.993 57.795,319.219 171.771,416.858" style="fill:#00adbc;fill-rule:nonzero;"/></g><g><rect x="815.331" y="2075.42" width="115.451" height="441.667" style="fill:#00b0b9;"/></g><g><path d="M1342.54,2517.08l-173.508,-269.792l3.073,269.792l-110.573,-0l0,-441.667l99.566,-0l175.955,279.323l-4.895,-279.323l110.573,-0l-0,441.667l-100.191,-0Z" style="fill:#00b0b9;fill-rule:nonzero;"/></g><g><path d="M1751.25,2204.33c-4.896,-31.614 -18.316,-42.969 -40.903,-42.969c-21.406,0 -39.74,14.914 -39.74,34.619c0,26.267 24.428,38.177 73.907,59.079c99.6,41.771 124.653,76.98 124.653,134.896c-0,85.348 -59.896,135.487 -157.622,135.487c-98.368,-0 -163.125,-50.139 -163.125,-145.035l-0,-9.549l114.861,0c0.625,36.389 18.941,60.295 47.656,60.295c23.837,0 43.368,-18.507 43.368,-42.378c0,-35.209 -50.104,-50.747 -91.024,-66.858c-73.906,-29.253 -107.5,-67.448 -107.5,-124.757c-0,-75.208 74.514,-130.122 157.604,-130.122c29.913,0 56.198,6.58 80.018,18.525c48.246,24.444 71.458,59.687 72.083,118.767l-114.236,0Z" style="fill:#00b0b9;fill-rule:nonzero;"/></g><g><path d="M2027.39,2517.08l-0.001,-342.587l-89.184,-0l0,-99.08l293.23,-0l-0,99.08l-88.594,-0l-0,342.587l-115.451,-0Z" style="fill:#00b0b9;fill-rule:nonzero;"/></g><g><path d="M2543,2517.08l-104.462,-142.657l-1.233,0l0,142.657l-110.555,-0l-0,-441.667l147.83,-0c47.048,-0 83.073,5.955 106.892,16.111c48.872,21.493 83.073,73.403 83.073,136.076c0,69.827 -42.743,127.136 -112.396,139.063l122.813,150.417l-131.962,-0Zm-62.917,-219.653c45.816,-0 73.907,-20.868 73.907,-63.264c-0,-38.195 -29.323,-59.67 -72.691,-59.67l-43.994,-0l0,122.934l42.778,-0Z" style="fill:#00b0b9;fill-rule:nonzero;"/></g><g><path d="M3010.96,2075.41l115.452,-0l-0,270.382c-0,45.972 -7.327,80.555 -22.587,104.444c-29.948,47.17 -80.642,75.209 -149.08,75.209c-37.847,-0 -70.226,-7.153 -96.493,-22.101c-53.16,-30.434 -78.802,-71.615 -78.802,-156.962l-0,-270.972l115.434,-0l-0,269.184c-0,54.913 17.726,81.753 58.646,81.753c39.114,0 57.43,-19.08 57.43,-81.146l0,-269.791Z" style="fill:#00b0b9;fill-rule:nonzero;"/></g><g><path d="M3626.75,2517.08l3.681,-330.678l-1.233,-1.18l-96.51,331.858l-76.372,-0l-97.726,-334.844l3.663,334.844l-106.302,-0l0,-441.667l148.438,-0l89.809,290.66l1.233,-0l88.576,-290.66l149.045,-0l0,441.667l-106.302,-0Z" style="fill:#00b0b9;fill-rule:nonzero;"/></g><g><path d="M3863.83,2517.08l0,-441.667l251.094,-0l-0,99.08l-140.538,-0l-0,68.645l136.232,0l0,99.063l-136.232,0l-0,75.799l140.538,-0l-0,99.08l-251.094,-0Z" style="fill:#00b0b9;fill-rule:nonzero;"/></g><g><path d="M4516.29,2517.08l-173.49,-269.792l3.056,269.792l-110.574,-0l0,-441.667l99.567,-0l175.937,279.323l-4.878,-279.323l110.573,-0l-0,441.667l-100.191,-0Z" style="fill:#00b0b9;fill-rule:nonzero;"/></g><g><path d="M4802.21,2517.08l0,-342.587l-89.184,-0l0,-99.08l293.23,-0l-0,99.08l-88.594,-0l-0,342.587l-115.452,-0Z" style="fill:#00b0b9;fill-rule:nonzero;"/></g><g><path d="M5278.71,2204.33c-4.896,-31.614 -18.333,-42.969 -40.92,-42.969c-21.406,0 -39.739,14.914 -39.739,34.619c-0,26.267 24.444,38.177 73.923,59.079c99.601,41.771 124.636,76.98 124.636,134.896c-0,85.348 -59.879,135.487 -157.605,135.487c-98.368,-0 -163.125,-50.139 -163.125,-145.035l0,-9.549l114.862,0c0.625,36.389 18.941,60.295 47.638,60.295c23.837,0 43.386,-18.507 43.386,-42.378c-0,-35.209 -50.104,-50.747 -91.024,-66.858c-73.907,-29.253 -107.518,-67.448 -107.518,-124.757c0,-75.208 74.514,-130.122 157.622,-130.122c29.913,0 56.18,6.58 80.017,18.525c48.264,24.444 71.476,59.687 72.066,118.767l-114.219,0Z" style="fill:#00b0b9;fill-rule:nonzero;"/></g><g><path d="M1925.3,1814.32l-0,-145.261l-4.948,0c-76.823,123.49 -215.573,188.855 -411.32,188.855c-416.285,-0 -688.837,-312.327 -688.837,-719.046c-0,-401.893 279.983,-714.185 681.407,-714.185c158.559,0 287.413,45.99 403.889,159.775l10.208,-568.23l411.32,0l-10.208,1798.09l-391.511,-0Zm2.482,-677.883c0,-186.423 -146.198,-336.528 -349.375,-336.528c-193.281,0 -346.892,140.434 -346.892,336.528c-0,203.351 146.18,346.216 344.41,346.216c200.712,-0 351.857,-147.691 351.857,-346.216" style="fill:#fff;fill-rule:nonzero;"/></g><g><path d="M5140.12,1808.13c-162.656,-0 -294.514,-131.858 -294.514,-294.549c-0,-162.656 131.858,-294.514 294.514,-294.514c162.656,-0 294.549,131.858 294.549,294.514c-0,162.691 -131.893,294.549 -294.549,294.549" style="fill:#00adbc;fill-rule:nonzero;"/></g><g><path d="M3615.97,122.341c52.239,-41.649 112.5,-75.642 177.396,-101.163l-1379.08,-0l-0,374.618l287.118,0l0,1419.05l441.025,0l-0,-1419.05l286.997,0c28.697,-103.993 92.361,-198.385 186.545,-273.455" style="fill:#fff;fill-rule:nonzero;"/></g></svg>