<?xml version="1.0" encoding="UTF-8" standalone="no"?>
<!DOCTYPE svg PUBLIC "-//W3C//DTD SVG 1.1//EN" "http://www.w3.org/Graphics/SVG/1.1/DTD/svg11.dtd">
<svg width="100%" height="100%" viewBox="0 0 1500 610" version="1.1" xmlns="http://www.w3.org/2000/svg" xmlns:xlink="http://www.w3.org/1999/xlink" xml:space="preserve" xmlns:serif="http://www.serif.com/" style="fill-rule:evenodd;clip-rule:evenodd;stroke-linejoin:round;stroke-miterlimit:2;">
    <g transform="matrix(4.16667,0,0,4.16667,866.417,39.7346)">
        <path d="M0,86.308C6.274,91.683 15.42,94.526 26.442,94.526C48.413,94.526 61.529,83.29 61.529,64.47C61.529,57.479 59.888,52.632 56.04,48.258C51.879,43.529 44.764,39.155 33.651,34.491C22.294,29.695 16.368,26.89 16.368,20.345C16.368,15.58 20.763,11.704 26.165,11.704C31.835,11.704 34.926,14.725 36.123,21.481L60.682,21.481C60.367,9.082 55.561,1.407 44.717,-4.091C39.177,-6.867 33.335,-8.218 26.859,-8.218C17.818,-8.218 8.876,-5.223 2.324,-0.001C-4.479,5.423 -8.227,12.744 -8.227,20.616C-8.227,33.188 -0.833,41.72 15.747,48.282C16.634,48.63 17.542,48.979 18.455,49.33C27.118,52.657 36.936,56.429 36.936,64.198C36.936,69.935 32.166,74.604 26.304,74.604C19.602,74.604 15.111,69.247 14.725,60.89L-9.894,60.89L-9.894,62.297C-9.894,72.607 -6.565,80.684 0,86.308" style="fill:rgb(0,173,188);fill-rule:nonzero;"/>
    </g>
    <g transform="matrix(4.16667,0,0,4.16667,-471.067,-2028.48)">
        <rect x="160.019" y="606.379" width="6.65" height="25.44" style="fill:rgb(0,62,82);"/>
    </g>
    <g transform="matrix(4.16667,0,0,4.16667,322.209,498.1)">
        <path d="M0,25.44L-9.994,9.9L-9.817,25.44L-16.186,25.44L-16.186,0L-10.451,0L-0.316,16.089L-0.598,0L5.771,0L5.771,25.44L0,25.44Z" style="fill:rgb(0,62,82);fill-rule:nonzero;"/>
    </g>
    <g transform="matrix(4.16667,0,0,4.16667,420.299,573.155)">
        <path d="M0,-10.588C-0.282,-12.409 -1.055,-13.063 -2.356,-13.063C-3.589,-13.063 -4.645,-12.204 -4.645,-11.069C-4.645,-9.556 -3.238,-8.87 -0.388,-7.666C5.349,-5.26 6.792,-3.232 6.792,0.104C6.792,5.02 3.342,7.908 -2.287,7.908C-7.953,7.908 -11.683,5.02 -11.683,-0.446L-11.683,-0.996L-5.067,-0.996C-5.031,1.1 -3.976,2.477 -2.322,2.477C-0.949,2.477 0.176,1.411 0.176,0.036C0.176,-1.992 -2.71,-2.887 -5.067,-3.815C-9.324,-5.5 -11.259,-7.7 -11.259,-11.001C-11.259,-15.333 -6.967,-18.496 -2.181,-18.496C-0.458,-18.496 1.056,-18.117 2.428,-17.429C5.207,-16.021 6.544,-13.991 6.58,-10.588L0,-10.588Z" style="fill:rgb(0,62,82);fill-rule:nonzero;"/>
    </g>
    <g transform="matrix(4.16667,0,0,4.16667,486.573,498.1)">
        <path d="M0,25.44L0,5.707L-5.137,5.707L-5.137,0L11.753,0L11.753,5.707L6.65,5.707L6.65,25.44L0,25.44Z" style="fill:rgb(0,62,82);fill-rule:nonzero;"/>
    </g>
    <g transform="matrix(4.16667,0,0,4.16667,610.32,498.1)">
        <path d="M0,25.44L-6.017,17.223L-6.088,17.223L-6.088,25.44L-12.456,25.44L-12.456,0L-3.941,0C-1.231,0 0.844,0.343 2.216,0.928C5.031,2.166 7.001,5.156 7.001,8.766C7.001,12.788 4.539,16.089 0.527,16.776L7.601,25.44L0,25.44ZM-3.624,12.788C-0.985,12.788 0.633,11.586 0.633,9.144C0.633,6.944 -1.056,5.707 -3.554,5.707L-6.088,5.707L-6.088,12.788L-3.624,12.788Z" style="fill:rgb(0,62,82);fill-rule:nonzero;"/>
    </g>
    <g transform="matrix(4.16667,0,0,4.16667,722.63,606.106)">
        <path d="M0,-25.922L6.65,-25.922L6.65,-10.348C6.65,-7.7 6.228,-5.708 5.349,-4.332C3.624,-1.615 0.704,0 -3.238,0C-5.418,0 -7.283,-0.412 -8.796,-1.273C-11.858,-3.026 -13.335,-5.398 -13.335,-10.314L-13.335,-25.922L-6.686,-25.922L-6.686,-10.417C-6.686,-7.254 -5.665,-5.708 -3.308,-5.708C-1.055,-5.708 0,-6.807 0,-10.382L0,-25.922Z" style="fill:rgb(0,62,82);fill-rule:nonzero;"/>
    </g>
    <g transform="matrix(4.16667,0,0,4.16667,870.421,498.1)">
        <path d="M0,25.44L0.212,6.393L0.141,6.325L-5.418,25.44L-9.817,25.44L-15.446,6.153L-15.235,25.44L-21.358,25.44L-21.358,0L-12.808,0L-7.635,16.742L-7.564,16.742L-2.462,0L6.123,0L6.123,25.44L0,25.44Z" style="fill:rgb(0,62,82);fill-rule:nonzero;"/>
    </g>
    <g transform="matrix(4.16667,0,0,4.16667,927.318,498.1)">
        <path d="M0,25.44L0,0L14.463,0L14.463,5.707L6.368,5.707L6.368,9.661L14.215,9.661L14.215,15.367L6.368,15.367L6.368,19.733L14.463,19.733L14.463,25.44L0,25.44Z" style="fill:rgb(0,62,82);fill-rule:nonzero;"/>
    </g>
    <g transform="matrix(4.16667,0,0,4.16667,1083.91,498.1)">
        <path d="M0,25.44L-9.993,9.9L-9.817,25.44L-16.186,25.44L-16.186,0L-10.451,0L-0.317,16.089L-0.598,0L5.771,0L5.771,25.44L0,25.44Z" style="fill:rgb(0,62,82);fill-rule:nonzero;"/>
    </g>
    <g transform="matrix(4.16667,0,0,4.16667,1152.53,498.1)">
        <path d="M0,25.44L0,5.707L-5.137,5.707L-5.137,0L11.753,0L11.753,5.707L6.65,5.707L6.65,25.44L0,25.44Z" style="fill:rgb(0,62,82);fill-rule:nonzero;"/>
    </g>
    <g transform="matrix(4.16667,0,0,4.16667,1266.89,573.155)">
        <path d="M0,-10.588C-0.282,-12.409 -1.056,-13.063 -2.357,-13.063C-3.59,-13.063 -4.646,-12.204 -4.646,-11.069C-4.646,-9.556 -3.238,-8.87 -0.388,-7.666C5.349,-5.26 6.791,-3.232 6.791,0.104C6.791,5.02 3.342,7.908 -2.287,7.908C-7.953,7.908 -11.683,5.02 -11.683,-0.446L-11.683,-0.996L-5.067,-0.996C-5.031,1.1 -3.976,2.477 -2.323,2.477C-0.95,2.477 0.176,1.411 0.176,0.036C0.176,-1.992 -2.71,-2.887 -5.067,-3.815C-9.324,-5.5 -11.26,-7.7 -11.26,-11.001C-11.26,-15.333 -6.968,-18.496 -2.181,-18.496C-0.458,-18.496 1.055,-18.117 2.428,-17.429C5.208,-16.021 6.545,-13.991 6.579,-10.588L0,-10.588Z" style="fill:rgb(0,62,82);fill-rule:nonzero;"/>
    </g>
    <g transform="matrix(4.16667,0,0,4.16667,462.071,14.3563)">
        <path d="M0,101.059L0,92.692L-0.285,92.692C-4.71,99.805 -12.702,103.57 -23.977,103.57C-47.955,103.57 -63.654,85.58 -63.654,62.153C-63.654,39.004 -47.527,21.016 -24.405,21.016C-15.272,21.016 -7.85,23.665 -1.141,30.219L-0.553,-2.511L23.139,-2.511L22.551,101.059L0,101.059ZM0.143,62.013C0.143,51.275 -8.278,42.629 -19.981,42.629C-31.114,42.629 -39.962,50.718 -39.962,62.013C-39.962,73.726 -31.542,81.955 -20.124,81.955C-8.563,81.955 0.143,73.448 0.143,62.013" style="fill:rgb(0,62,82);fill-rule:nonzero;"/>
    </g>
    <g transform="matrix(4.16667,0,0,4.16667,1233.63,292.577)">
        <path d="M0,33.93C-9.369,33.93 -16.964,26.335 -16.964,16.964C-16.964,7.595 -9.369,0 0,0C9.369,0 16.966,7.595 16.966,16.964C16.966,26.335 9.369,33.93 0,33.93" style="fill:rgb(0,173,188);fill-rule:nonzero;"/>
    </g>
    <g transform="matrix(4.16667,0,0,4.16667,867.833,411.283)">
        <path d="M0,-91.661C3.009,-94.06 6.48,-96.018 10.218,-97.488L-69.217,-97.488L-69.217,-75.91L-52.679,-75.91L-52.679,5.827L-27.276,5.827L-27.276,-75.91L-10.745,-75.91C-9.092,-81.9 -5.425,-87.337 0,-91.661" style="fill:rgb(0,62,82);fill-rule:nonzero;"/>
    </g>
</svg>
